<svg width="32" height="32" viewBox="0 0 32 32" fill="none" xmlns="http://www.w3.org/2000/svg">
<path d="M15.8848 0C13.7988 0 11.7332 0.415527 9.80596 1.22286C7.87873 2.03019 6.1276 3.21351 4.65256 4.70526C1.67357 7.71799 0 11.8041 0 16.0648C0 23.1654 4.55894 29.1897 10.8652 31.3263C11.6595 31.4548 11.9136 30.9568 11.9136 30.523V27.8081C7.51352 28.772 6.57631 25.6554 6.57631 25.6554C5.84561 23.7919 4.8131 23.2939 4.8131 23.2939C3.36758 22.2979 4.92429 22.33 4.92429 22.33C6.51277 22.4425 7.35467 23.9847 7.35467 23.9847C8.73665 26.4265 11.0717 25.7036 11.9772 25.3181C12.1201 24.2739 12.5331 23.567 12.9779 23.1654C9.45147 22.7638 5.7503 21.3822 5.7503 15.2615C5.7503 13.4783 6.35393 12.0486 7.38644 10.908C7.22759 10.5064 6.67162 8.83562 7.54529 6.66688C7.54529 6.66688 8.87961 6.23313 11.9136 8.30548C13.1685 7.95206 14.5346 7.77534 15.8848 7.77534C17.235 7.77534 18.6011 7.95206 19.856 8.30548C22.89 6.23313 24.2243 6.66688 24.2243 6.66688C25.098 8.83562 24.542 10.5064 24.3832 10.908C25.4157 12.0486 26.0193 13.4783 26.0193 15.2615C26.0193 21.3983 22.3023 22.7477 18.76 23.1493C19.3318 23.6473 19.856 24.6273 19.856 26.1213V30.523C19.856 30.9568 20.1102 31.4709 20.9203 31.3263C27.2266 29.1736 31.7696 23.1654 31.7696 16.0648C31.7696 13.9551 31.3588 11.8661 30.5605 9.91704C29.7622 7.96798 28.5921 6.19701 27.1171 4.70526C25.642 3.21351 23.8909 2.03019 21.9637 1.22286C20.0364 0.415527 17.9708 0 15.8848 0Z" fill="#375B8B"/>
</svg>
