<svg width="49" height="49" viewBox="0 0 49 49" fill="none" xmlns="http://www.w3.org/2000/svg">
<rect width="48.1735" height="48.1735" transform="translate(0.173584)" fill="url(#paint0_linear_252_151)"/>
<path d="M30.2995 11.0012H18.2206C16.3525 11.0032 14.5615 11.7462 13.2405 13.0672C11.9195 14.3881 11.1766 16.1791 11.1746 18.0472V30.1262C11.1766 31.9943 11.9195 33.7853 13.2405 35.1062C14.5615 36.4272 16.3525 37.1702 18.2206 37.1722H30.2995C32.1676 37.1702 33.9586 36.4272 35.2796 35.1062C36.6005 33.7853 37.3435 31.9943 37.3455 30.1262V18.0472C37.3435 16.1791 36.6005 14.3881 35.2796 13.0672C33.9586 11.7462 32.1676 11.0032 30.2995 11.0012ZM24.26 30.1262C23.0656 30.1262 21.8979 29.7719 20.9047 29.1083C19.9115 28.4447 19.1374 27.5015 18.6803 26.3979C18.2232 25.2943 18.1036 24.08 18.3366 22.9085C18.5697 21.7369 19.1449 20.6608 19.9895 19.8162C20.8341 18.9715 21.9103 18.3963 23.0818 18.1633C24.2533 17.9303 25.4677 18.0499 26.5712 18.507C27.6748 18.9641 28.618 19.7382 29.2817 20.7314C29.9453 21.7245 30.2995 22.8922 30.2995 24.0867C30.2978 25.688 29.661 27.2231 28.5287 28.3554C27.3965 29.4877 25.8613 30.1245 24.26 30.1262ZM31.8094 18.0472C31.5107 18.0472 31.2188 17.9587 30.9705 17.7928C30.7222 17.6269 30.5287 17.3911 30.4144 17.1152C30.3001 16.8393 30.2702 16.5357 30.3285 16.2428C30.3868 15.9499 30.5306 15.6809 30.7417 15.4698C30.9529 15.2586 31.2219 15.1148 31.5148 15.0565C31.8077 14.9983 32.1113 15.0282 32.3872 15.1425C32.663 15.2567 32.8989 15.4503 33.0648 15.6986C33.2307 15.9468 33.3192 16.2388 33.3192 16.5374C33.3192 16.9378 33.1601 17.3219 32.877 17.605C32.5938 17.8882 32.2098 18.0472 31.8094 18.0472ZM28.2863 24.0867C28.2863 24.883 28.0502 25.6615 27.6078 26.3236C27.1654 26.9857 26.5366 27.5018 25.8008 27.8065C25.0651 28.1113 24.2556 28.191 23.4745 28.0356C22.6935 27.8803 21.9761 27.4968 21.413 26.9337C20.8499 26.3706 20.4665 25.6532 20.3111 24.8722C20.1557 24.0912 20.2355 23.2816 20.5402 22.5459C20.845 21.8102 21.361 21.1814 22.0231 20.739C22.6853 20.2965 23.4637 20.0604 24.26 20.0604C25.3279 20.0604 26.352 20.4846 27.1071 21.2397C27.8621 21.9948 28.2863 23.0189 28.2863 24.0867Z" fill="white"/>
<defs>
<linearGradient id="paint0_linear_252_151" x1="48.1735" y1="0" x2="5.74273e-06" y2="48.1735" gradientUnits="userSpaceOnUse">
<stop stop-color="#FF0870"/>
<stop offset="1" stop-color="#990B47" stop-opacity="0.92"/>
</linearGradient>
</defs>
</svg>
