<svg width="30" height="30" viewBox="0 0 30 30" fill="none" xmlns="http://www.w3.org/2000/svg">
<path d="M26.0126 0.606445C26.8552 0.606445 27.6632 0.944952 28.259 1.5475C28.8548 2.15004 29.1895 2.96727 29.1895 3.8194V26.3101C29.1895 27.1622 28.8548 27.9794 28.259 28.582C27.6632 29.1845 26.8552 29.523 26.0126 29.523H3.77383C2.93124 29.523 2.12317 29.1845 1.52737 28.582C0.931578 27.9794 0.596863 27.1622 0.596863 26.3101V3.8194C0.596863 2.96727 0.931578 2.15004 1.52737 1.5475C2.12317 0.944952 2.93124 0.606445 3.77383 0.606445H26.0126ZM25.2183 25.5068V16.9925C25.2183 15.6035 24.6727 14.2715 23.7016 13.2893C22.7304 12.3072 21.4133 11.7554 20.0399 11.7554C18.6897 11.7554 17.1171 12.5908 16.3546 13.8438V12.0606H11.9227V25.5068H16.3546V17.5869C16.3546 16.3499 17.3395 15.3378 18.5626 15.3378C19.1524 15.3378 19.7181 15.5748 20.1351 15.9966C20.5522 16.4183 20.7865 16.9904 20.7865 17.5869V25.5068H25.2183ZM6.76017 9.53845C7.46794 9.53845 8.14672 9.25411 8.64719 8.74797C9.14766 8.24183 9.42882 7.55536 9.42882 6.83957C9.42882 5.34555 8.23746 4.12463 6.76017 4.12463C6.04819 4.12463 5.36537 4.41067 4.86192 4.91982C4.35847 5.42897 4.07564 6.11952 4.07564 6.83957C4.07564 8.33359 5.28288 9.53845 6.76017 9.53845ZM8.96816 25.5068V12.0606H4.56807V25.5068H8.96816Z" fill="#375B8B"/>
</svg>
