<svg width="25" height="29" viewBox="0 0 25 29" fill="none" xmlns="http://www.w3.org/2000/svg">
<path d="M22.317 19.9069L23.4905 4.07817C23.5542 3.3375 23.3244 2.60144 22.8507 2.02853C22.377 1.45561 21.6972 1.09167 20.9577 1.01509C20.2183 0.938512 19.4783 1.15542 18.8972 1.61909C18.3161 2.08277 17.9404 2.75612 17.851 3.49412L16.9216 10.465M7.47967 13.1627L6.51795 7.39094C6.39768 6.68366 6.00851 6.0503 5.43188 5.62343C4.85524 5.19657 4.13585 5.00929 3.42427 5.10078C2.71269 5.19228 2.06408 5.55546 1.61419 6.11432C1.16431 6.67318 0.948018 7.38438 1.0106 8.09909L2.08428 19.9069M12.8751 15.8604V13.8371C12.8751 13.1216 12.5908 12.4354 12.0849 11.9295C11.579 11.4236 10.8928 11.1394 10.1774 11.1394C9.4619 11.1394 8.77573 11.4236 8.26981 11.9295C7.7639 12.4354 7.47967 13.1216 7.47967 13.8371V18.5581" stroke="#e0be12" stroke-width="1.34885" stroke-linecap="round" stroke-linejoin="round"/>
<path d="M18.2699 15.8602V13.1625C18.2699 12.4471 17.9857 11.7609 17.4798 11.255C16.9739 10.7491 16.2877 10.4648 15.5722 10.4648C14.8567 10.4648 14.1706 10.7491 13.6646 11.255C13.1587 11.7609 12.8745 12.4471 12.8745 13.1625V15.8602" stroke="#e0be12" stroke-width="1.34885" stroke-linecap="round" stroke-linejoin="round"/>
<path d="M22.3167 19.9067C21.5937 25.3021 17.7873 27.9998 12.2003 27.9998C6.61342 27.9998 2.08398 25.3021 2.08398 19.9067" stroke="#e0be12" stroke-width="1.34885"/>
<path d="M15.1569 21.2557H11.5258C10.8103 21.2557 10.1242 20.9715 9.61826 20.4656C9.11235 19.9597 8.82812 19.2735 8.82812 18.558C8.82812 17.8426 9.11235 17.1564 9.61826 16.6505C10.1242 16.1446 10.8103 15.8604 11.5258 15.8604H16.9212C19.9022 15.8604 22.991 18.558 21.6422 22.6046" stroke="#e0be12" stroke-width="1.34885" stroke-linecap="round" stroke-linejoin="round"/>
</svg>
