<svg width="232" height="234" viewBox="0 0 232 234" fill="none" xmlns="http://www.w3.org/2000/svg">
<path d="M169.506 164.573V164.505C169.507 162.936 169.094 161.395 168.309 160.041C167.523 158.687 166.395 157.57 165.04 156.805L164.992 156.786C144.575 144.749 121.251 138.693 97.6264 139.294H97.7708C82.7752 139.429 67.8412 141.254 53.2455 144.735L54.6123 144.463C52.7456 144.697 51.0425 145.658 49.8639 147.14C48.6853 148.623 48.1238 150.512 48.2983 152.406V152.377V152.493C48.2983 154.489 49.0779 156.299 50.3388 157.633C51.6093 158.996 53.3995 159.843 55.3919 159.843L55.6903 159.833C57.8559 159.502 59.7231 159.083 61.5615 158.538L61.2535 158.616C73.2285 155.985 85.4398 154.608 97.6938 154.508H97.79C118.949 154.014 139.82 159.543 158.023 170.462L157.504 170.17C158.909 171.115 160.612 171.718 162.441 171.845H162.48C164.353 171.845 166.15 171.092 167.475 169.752C168.8 168.412 169.544 166.595 169.544 164.7V164.534L169.506 164.573ZM183.943 131.867V131.555C183.943 127.71 181.836 124.352 178.727 122.62L178.678 122.59C155.983 109.089 128.677 101.107 99.5321 101.107C98.3964 101.107 97.251 101.117 96.1249 101.146H96.2981C80.4785 101.139 64.737 103.39 49.5399 107.834L50.7238 107.532C48.5435 107.978 46.6026 109.222 45.2724 111.025C43.9423 112.828 43.3164 115.064 43.5146 117.305C43.5146 122.328 47.5379 126.396 52.5044 126.396H52.5429C54.6411 126.124 56.5276 125.696 58.3467 125.121L58.1158 125.189C70.3281 121.815 82.9355 120.125 95.5955 120.167H95.8554H95.8457C121.817 119.526 147.454 126.181 169.91 139.391L169.236 139.021C170.863 140.073 172.807 140.783 174.896 140.997H174.992C177.376 140.997 179.663 140.04 181.349 138.335C183.035 136.63 183.982 134.317 183.982 131.906V131.867H183.943ZM200.21 94.1573L200.219 93.6511C200.219 89.2805 197.803 85.4843 194.252 83.5375L194.194 83.5083C180.763 75.7921 166.249 70.1892 151.151 66.8923L150.131 66.7073C134.769 63.0863 117.127 61.0032 99.0028 61.0032H98.5215H98.5504C79.585 60.719 60.6805 63.2409 42.4366 68.4886L43.8034 68.1479C41.5429 68.8354 39.5337 70.1832 38.0284 72.0221L38.0091 72.0416C36.378 74.1466 35.5572 76.7786 35.6991 79.4492V79.42V79.7022C35.6991 82.6711 36.8734 85.3674 38.7887 87.3337C40.6752 89.3097 43.3221 90.5265 46.2481 90.5265H46.5561H46.5369C48.7506 90.3318 50.8008 89.9035 52.745 89.2513L52.5525 89.3097C67.665 85.2717 83.2592 83.3781 98.8873 83.6835H98.7525H99.176C115.529 83.6835 131.439 85.5719 146.714 89.1345L145.299 88.8522C158.914 91.676 172 96.6667 184.068 103.638L183.424 103.298C185.137 104.378 187.206 105.05 189.42 105.118H189.535C192.462 105.118 195.108 103.93 197.024 102.003C198.997 100.115 200.229 97.4377 200.229 94.4785L200.219 94.1378V94.1573H200.21ZM231.01 116.818V117.694C231.01 138.982 225.254 158.908 215.225 175.972L215.513 175.446C205.503 192.894 191.212 207.435 174.02 217.663L173.481 217.955C156.839 227.806 136.848 233.617 115.5 233.617C94.1517 233.617 74.1606 227.805 56.9704 217.653L57.519 217.955C40.2667 207.831 25.8888 193.378 15.7754 175.991L15.4866 175.446C5.74613 158.616 0 138.398 0 116.808C0 95.2183 5.74613 75.0007 15.785 57.6157L15.4866 58.1706C25.4965 40.7229 39.7882 26.1821 56.98 15.9541L57.519 15.6621C74.1606 5.81122 94.1517 0 115.5 0C136.848 0 156.839 5.81122 174.03 15.9638L173.481 15.6621C190.733 25.7854 205.111 40.239 215.225 57.6255L215.513 58.1706C225.718 75.6626 231.071 95.6132 231.01 115.923V116.857V116.808V116.818Z" fill="#1CD05D" fill-opacity="0.54"/>
</svg>
