<svg width="49" height="49" viewBox="0 0 49 49" fill="none" xmlns="http://www.w3.org/2000/svg">
<rect width="48.1735" height="48.1735" transform="translate(0.347168)" fill="url(#paint0_linear_252_156)"/>
<path d="M37.5191 15.8592C36.5558 16.3022 35.5175 16.5934 34.4416 16.7326C35.5425 16.0617 36.3932 14.9985 36.7935 13.72C35.7552 14.3529 34.6043 14.7959 33.3908 15.0491C32.4025 13.9605 31.0139 13.3276 29.4376 13.3276C26.4978 13.3276 24.0959 15.7579 24.0959 18.7579C24.0959 19.1882 24.1459 19.6059 24.2335 19.9983C19.7799 19.7705 15.8142 17.606 13.1746 14.3276C12.7117 15.1251 12.449 16.0617 12.449 17.049C12.449 18.9351 13.3873 20.6059 14.8384 21.5552C13.9502 21.5552 13.1246 21.3021 12.399 20.9223V20.9603C12.399 23.5932 14.2505 25.7956 16.7024 26.2893C15.9152 26.5073 15.0888 26.5376 14.288 26.3779C14.6278 27.4569 15.2932 28.4011 16.1908 29.0777C17.0884 29.7543 18.1729 30.1293 19.292 30.1499C17.395 31.6694 15.0436 32.4908 12.6242 32.479C12.1988 32.479 11.7735 32.4536 11.3481 32.403C13.725 33.9473 16.5523 34.846 19.5797 34.846C29.4376 34.846 34.8545 26.5677 34.8545 19.3907C34.8545 19.1502 34.8545 18.9224 34.842 18.6819C35.8928 17.9224 36.7935 16.9604 37.5191 15.8592Z" fill="white"/>
<defs>
<linearGradient id="paint0_linear_252_156" x1="48.1735" y1="0" x2="5.74273e-06" y2="48.1735" gradientUnits="userSpaceOnUse">
<stop stop-color="#0753C5"/>
<stop offset="1" stop-color="#158FB6" stop-opacity="0.92"/>
</linearGradient>
</defs>
</svg>
