<svg width="49" height="49" viewBox="0 0 49 49" fill="none" xmlns="http://www.w3.org/2000/svg">
<rect width="48.1735" height="48.1735" transform="translate(0.520508)" fill="url(#paint0_linear_252_161)"/>
<path d="M24.9274 13.9092C25.6262 13.913 27.3745 13.9295 29.2327 14.0021L29.8923 14.03C31.7623 14.1153 33.631 14.2629 34.5588 14.5135C35.7954 14.8519 36.7664 15.8367 37.0949 17.0861C37.6183 19.0708 37.6838 22.9411 37.6916 23.8788L37.6929 24.0721V24.2935C37.6838 25.2312 37.6183 29.1027 37.0949 31.0862C36.7625 32.3394 35.7902 33.3254 34.5588 33.6588C33.631 33.9094 31.7623 34.057 29.8923 34.1422L29.2327 34.1715C27.3745 34.2427 25.6262 34.2606 24.9274 34.2631L24.6199 34.2644H24.2862C22.8075 34.2555 16.6229 34.1906 14.6548 33.6588C13.4195 33.3203 12.4472 32.3356 12.1187 31.0862C11.5953 29.1015 11.5298 25.2312 11.522 24.2935V23.8788C11.5298 22.9411 11.5953 19.0695 12.1187 17.0861C12.4511 15.8329 13.4234 14.8468 14.6561 14.5148C16.6229 13.9817 22.8088 13.9168 24.2875 13.9092H24.9274ZM21.9896 19.6344V28.5404L29.8413 24.0874L21.9896 19.6344Z" fill="white"/>
<defs>
<linearGradient id="paint0_linear_252_161" x1="48.1735" y1="0" x2="5.74273e-06" y2="48.1735" gradientUnits="userSpaceOnUse">
<stop stop-color="#FF0808"/>
<stop offset="1" stop-color="#751B1B" stop-opacity="0.92"/>
</linearGradient>
</defs>
</svg>
