<svg width="194" height="79" viewBox="0 0 194 79" fill="none" xmlns="http://www.w3.org/2000/svg">
<path d="M1.10814 66.1242V50.1568C1.10814 50.0225 1.15012 49.926 1.23407 49.8672C1.31802 49.8001 1.39357 49.7665 1.46073 49.7665C1.53629 49.7581 1.67061 49.7539 1.86369 49.7539H13.751C13.8182 49.7539 13.8728 49.7665 13.9147 49.7917C13.9567 49.8085 13.9903 49.8294 14.0155 49.8546C14.0407 49.8714 14.0575 49.905 14.0659 49.9554C14.0742 49.9973 14.0784 50.0309 14.0784 50.0561C14.0868 50.0813 14.0868 50.1191 14.0784 50.1694C14.0784 50.2198 14.0784 50.2492 14.0784 50.2576V54.539H8.18514V54.9924C8.18514 55.0931 8.20193 55.3618 8.23551 55.7983H9.41921C9.53674 55.7899 9.74662 55.7647 10.0488 55.7227C10.3595 55.6724 10.6029 55.6472 10.7792 55.6472H11.8118C12.0469 55.6472 12.2231 55.6388 12.3407 55.622C12.6849 55.622 12.9997 55.664 13.2851 55.7479C13.5705 55.8319 13.7259 55.9242 13.751 56.025V56.7553C13.751 56.9148 13.7426 57.1625 13.7259 57.4983C13.7091 57.8257 13.7007 58.0734 13.7007 58.2413V59.3746C13.7175 59.4417 13.7259 59.5593 13.7259 59.7272V60.2309C13.6923 60.4995 13.432 60.6338 12.9451 60.6338H12.1392C11.8538 60.6338 11.4424 60.6422 10.9051 60.659C10.3762 60.6758 9.96489 60.6842 9.67106 60.6842H8.2607V66.6782H1.43555L1.10814 66.1242ZM14.431 58.065L14.4059 57.7879C14.5654 56.4195 14.7165 55.4667 14.8592 54.9294C15.1866 53.6702 15.7742 52.6166 16.6221 51.7687L16.9244 51.4665C17.3273 50.9964 17.9402 50.5934 18.7629 50.2576H19.2414C20.0641 49.9134 21.4157 49.5944 23.2962 49.3006C23.7663 49.3006 24.2574 49.3383 24.7695 49.4139C25.29 49.4811 25.8651 49.5986 26.4947 49.7665C27.1243 49.926 27.7287 50.1862 28.308 50.5472C28.8957 50.8998 29.3826 51.3238 29.7687 51.8191V52.1717C31.1455 53.8926 31.8339 55.8235 31.8339 57.9642C31.8339 60.3736 31.2798 62.338 30.1717 63.8575L29.668 64.4871C29.2818 64.9657 28.7991 65.377 28.2199 65.7212C27.649 66.0654 27.0404 66.3299 26.3939 66.5145C25.7475 66.6908 25.1263 66.8168 24.5302 66.8923C23.9426 66.9679 23.3549 67.0057 22.7673 67.0057C21.9026 67.0057 21.0757 66.9049 20.2866 66.7034C19.5058 66.4936 18.7713 66.1703 18.0829 65.7338C17.4029 65.2973 16.8026 64.76 16.2821 64.122C15.7616 63.4839 15.3377 62.7158 15.0103 61.8175C14.6913 60.9109 14.4982 59.9119 14.431 58.8205V58.065ZM21.3569 58.1657C21.3569 61.1207 21.9194 62.5983 23.0443 62.5983C23.3549 62.5983 23.6236 62.5395 23.8502 62.422C24.0853 62.3044 24.2742 62.1239 24.4169 61.8805C24.5596 61.637 24.6772 61.3894 24.7695 61.1375C24.8618 60.8857 24.9248 60.5709 24.9584 60.1931C25.0004 59.8153 25.0255 59.4837 25.0339 59.1983C25.0507 58.9129 25.0591 58.5687 25.0591 58.1657V57.7124C25.0591 57.2758 25.0339 56.8561 24.9836 56.4531C24.9332 56.0502 24.8451 55.6472 24.7191 55.2442C24.6016 54.8329 24.4169 54.5055 24.1651 54.262C23.9132 54.0102 23.6068 53.8842 23.2458 53.8842C21.9866 53.8842 21.3569 55.1267 21.3569 57.6116V58.1657ZM33.6472 49.8546H35.9894C36.7114 49.8546 37.8657 49.8378 39.4524 49.8043C41.039 49.7707 42.2269 49.7539 43.0161 49.7539C43.6961 49.7539 44.3299 49.7917 44.9175 49.8672C45.5136 49.9428 46.097 50.0813 46.6679 50.2828C47.2472 50.4843 47.7383 50.7403 48.1412 51.0509C48.5526 51.3615 48.8842 51.7729 49.136 52.285C49.3879 52.7887 49.5138 53.3721 49.5138 54.0353C49.5138 54.9504 49.2997 55.7311 48.8716 56.3776C48.4435 57.024 47.7844 57.5697 46.8946 58.0146C47.2472 58.1657 47.5536 58.363 47.8138 58.6064C48.0741 58.8499 48.2714 59.0598 48.4057 59.2361C48.5484 59.4124 48.6827 59.7104 48.8086 60.1301C48.943 60.5415 49.0227 60.8143 49.0479 60.9486C49.0731 61.0746 49.1276 61.3936 49.2116 61.9057C49.2368 62.0232 49.2536 62.1114 49.262 62.1701C49.2955 62.5059 49.4383 63.123 49.6901 64.0212C49.942 64.9111 50.0679 65.5953 50.0679 66.0738C50.0679 66.376 49.9755 66.5271 49.7909 66.5271C49.2872 66.5271 48.5232 66.5313 47.499 66.5397C46.4832 66.5481 45.7277 66.5523 45.2324 66.5523C45.0309 66.5355 44.7287 66.5271 44.3257 66.5271H43.4694C43.3015 66.4768 43.1378 66.2165 42.9783 65.7464C42.8188 65.2763 42.7055 64.7474 42.6383 64.1597L42.3613 61.9183C42.3109 61.7336 42.2689 61.6035 42.2353 61.5279C42.2102 61.444 42.1598 61.3474 42.0842 61.2383C42.0087 61.1207 41.9037 61.041 41.7694 60.999C41.6435 60.957 41.4798 60.9361 41.2783 60.9361H40.699V65.9731C40.699 65.9982 40.699 66.0402 40.699 66.099C40.699 66.1494 40.699 66.1871 40.699 66.2123C40.699 66.2291 40.699 66.2585 40.699 66.3005C40.699 66.3424 40.6949 66.376 40.6865 66.4012C40.6781 66.418 40.6697 66.4432 40.6613 66.4768C40.6529 66.5103 40.6403 66.5355 40.6235 66.5523C40.6151 66.5607 40.5983 66.5775 40.5731 66.6027C40.5563 66.6195 40.5311 66.6321 40.4976 66.6405C40.4724 66.6489 40.4388 66.6573 40.3968 66.6657C40.3632 66.674 40.3213 66.6782 40.2709 66.6782H33.6472V49.8546ZM40.7746 56.5035C40.7914 56.5203 40.8166 56.5581 40.8502 56.6168C40.8837 56.6672 40.9173 56.7092 40.9509 56.7427C40.9845 56.7763 41.0181 56.7973 41.0516 56.8057C41.3035 56.8057 41.5553 56.7805 41.8072 56.7301C42.059 56.6714 42.3151 56.579 42.5753 56.4531C42.844 56.3272 43.058 56.1341 43.2176 55.8739C43.3855 55.6136 43.4694 55.303 43.4694 54.942C43.4694 54.0689 42.6299 53.6324 40.9509 53.6324C40.783 53.6744 40.699 53.7415 40.699 53.8339V54.3124C40.699 54.5558 40.7116 54.921 40.7368 55.4079C40.762 55.8948 40.7746 56.26 40.7746 56.5035ZM59.059 66.7286V66.2501C59.059 64.8146 59.0757 62.6948 59.1093 59.8909C59.1429 57.0869 59.1597 54.9672 59.1597 53.5316V48.3183H73.8174V52.4487C73.8174 52.4739 73.8174 52.5368 73.8174 52.6376C73.8174 52.7383 73.8174 52.8055 73.8174 52.8391C73.8174 52.8726 73.8132 52.9356 73.8048 53.0279C73.7964 53.1119 73.7796 53.1707 73.7544 53.2042C73.7376 53.2378 73.7083 53.2882 73.6663 53.3554C73.6327 53.4141 73.5907 53.4561 73.5404 53.4813C73.49 53.5065 73.4228 53.5316 73.3389 53.5568C73.2549 53.5736 73.1626 53.582 73.0618 53.582H72.7093C70.5349 53.582 68.5537 53.5484 66.7656 53.4813C66.7488 53.6156 66.7194 53.8255 66.6774 54.1109C66.6439 54.3879 66.6145 54.6356 66.5893 54.8539C66.5725 55.0637 66.5641 55.2694 66.5641 55.4709H72.5581C72.81 55.4709 72.9779 55.5045 73.0618 55.5716C73.1458 55.6388 73.1878 55.7479 73.1878 55.899C73.1878 55.941 73.1836 56.0082 73.1752 56.1005C73.1668 56.1929 73.1626 56.26 73.1626 56.302C73.1626 56.705 73.1752 57.301 73.2004 58.0901C73.2255 58.8793 73.2381 59.4753 73.2381 59.8783C73.213 60.0462 73.1458 60.1301 73.0367 60.1301C72.9863 60.1301 72.9443 60.1133 72.9107 60.0798C70.2579 60.2141 68.2935 60.2812 67.0174 60.2812H66.69V62.0946C67.4372 62.0946 68.5159 62.061 69.9263 61.9938C71.3451 61.9267 72.407 61.8931 73.1122 61.8931C73.6663 61.8931 73.9853 62.0106 74.0692 62.2457V63.2027C74.0692 63.6057 74.0776 64.2017 74.0944 64.9908C74.1112 65.78 74.1196 66.376 74.1196 66.779C74.1196 67.1987 73.9517 67.4086 73.6159 67.4086C73.1794 67.4086 72.5078 67.4044 71.6011 67.396C70.6944 67.3876 70.0061 67.3834 69.5359 67.3834C68.3271 67.3834 66.5977 67.4128 64.3478 67.4716C62.0979 67.5387 60.4693 67.5765 59.4619 67.5849L59.1093 67.1819C59.0757 66.9469 59.059 66.7958 59.059 66.7286ZM83.9796 56.1005C84.0383 55.7815 84.1978 55.1729 84.4581 54.2746C84.7267 53.3679 84.8862 52.6502 84.9366 52.1213V51.2398C84.9366 51.223 84.945 51.1517 84.9618 51.0257C84.987 50.8998 84.9996 50.8243 84.9996 50.7991C85.008 50.7739 85.0205 50.7109 85.0373 50.6102C85.0625 50.501 85.0835 50.4297 85.1003 50.3961C85.1255 50.3625 85.1549 50.308 85.1884 50.2324C85.2304 50.1568 85.2724 50.1065 85.3144 50.0813C85.3563 50.0477 85.4067 50.0099 85.4655 49.968C85.5326 49.926 85.604 49.8966 85.6796 49.8798C85.7635 49.863 85.8517 49.8546 85.944 49.8546H91.6862C91.703 49.863 91.7534 49.8966 91.8373 49.9554C91.9213 50.0141 91.9884 50.0645 92.0388 50.1065C92.0975 50.1485 92.1311 50.182 92.1395 50.2072L87.921 65.3812C87.8287 65.7338 87.7112 66.0318 87.5684 66.2753C87.4341 66.5103 87.2788 66.6279 87.1025 66.6279H78.4892C78.3549 66.0906 78.1996 65.4568 78.0233 64.7264C77.847 63.996 77.6707 63.2699 77.4944 62.5479C77.3181 61.8175 77.1628 61.1795 77.0285 60.6338L73.9685 50.2324C73.9685 50.0393 74.107 49.9134 74.3841 49.8546V49.8043C74.8878 49.8043 75.6475 49.7959 76.6633 49.7791C77.6875 49.7623 78.4305 49.7539 78.8922 49.7539H80.9574C81.0161 49.7539 81.0539 49.7665 81.0707 49.7917C81.0959 49.8085 81.1211 49.8504 81.1462 49.9176C81.1798 49.9764 81.2218 50.0309 81.2722 50.0813L83.0729 60.5331L84.181 57.4857L83.9796 56.1005ZM92.9328 50.9124C92.9328 50.4087 92.9538 50.1149 92.9958 50.0309C93.0714 49.9134 93.1931 49.8546 93.361 49.8546H93.6632C93.7975 49.8546 93.8899 49.863 93.9403 49.8798H94.5951C95.443 49.8798 96.7232 49.8588 98.4358 49.8169C100.157 49.7749 101.445 49.7539 102.302 49.7539H105.651C105.87 49.7791 105.979 49.8882 105.979 50.0813V54.2872C105.97 54.3376 105.954 54.3837 105.928 54.4257C105.912 54.4593 105.895 54.4845 105.878 54.5013C105.87 54.5097 105.832 54.539 105.765 54.5894C105.697 54.6314 105.651 54.665 105.626 54.6902H99.7832V56.2516H100.337C100.824 56.2516 101.567 56.2348 102.566 56.2013C103.565 56.1677 104.333 56.1509 104.871 56.1509C105.106 56.1509 105.265 56.1971 105.349 56.2894C105.433 56.3818 105.475 56.5119 105.475 56.6798C105.475 56.7218 105.467 56.7931 105.45 56.8939C105.433 56.9946 105.425 57.0659 105.425 57.1079V57.5864C105.425 57.62 105.429 57.6914 105.437 57.8005C105.446 57.9013 105.45 57.9894 105.45 58.065V58.4175C105.45 58.6022 105.458 58.7869 105.475 58.9716C105.492 59.1563 105.5 59.3158 105.5 59.4501V59.7775C105.458 59.8783 105.425 59.9454 105.399 59.979C105.374 60.0126 105.332 60.0294 105.274 60.0294V60.0042C104.963 60.0042 104.426 60.0252 103.662 60.0672C102.906 60.1091 102.302 60.1301 101.848 60.1301H99.8336V61.742C99.9007 61.742 100.001 61.7462 100.136 61.7546C100.27 61.763 100.371 61.7672 100.438 61.7672C100.816 61.7672 101.374 61.7546 102.113 61.7294C102.852 61.7042 103.385 61.6916 103.712 61.6916H105.324C105.76 61.6916 106.037 61.742 106.155 61.8427C106.197 61.8931 106.231 61.9435 106.256 61.9938V66.0234C106.256 66.1997 106.222 66.334 106.155 66.4264C106.088 66.5187 105.962 66.5691 105.777 66.5775H93.3106L92.9328 66.2501V50.9124ZM107.716 49.8546H110.059C110.781 49.8546 111.935 49.8378 113.522 49.8043C115.108 49.7707 116.296 49.7539 117.085 49.7539C117.765 49.7539 118.399 49.7917 118.987 49.8672C119.583 49.9428 120.166 50.0813 120.737 50.2828C121.316 50.4843 121.808 50.7403 122.21 51.0509C122.622 51.3615 122.953 51.7729 123.205 52.285C123.457 52.7887 123.583 53.3721 123.583 54.0353C123.583 54.9504 123.369 55.7311 122.941 56.3776C122.513 57.024 121.854 57.5697 120.964 58.0146C121.316 58.1657 121.623 58.363 121.883 58.6064C122.143 58.8499 122.341 59.0598 122.475 59.2361C122.618 59.4124 122.752 59.7104 122.878 60.1301C123.012 60.5415 123.092 60.8143 123.117 60.9486C123.142 61.0746 123.197 61.3936 123.281 61.9057C123.306 62.0232 123.323 62.1114 123.331 62.1701C123.365 62.5059 123.508 63.123 123.759 64.0212C124.011 64.9111 124.137 65.5953 124.137 66.0738C124.137 66.376 124.045 66.5271 123.86 66.5271C123.356 66.5271 122.592 66.5313 121.568 66.5397C120.552 66.5481 119.797 66.5523 119.302 66.5523C119.1 66.5355 118.798 66.5271 118.395 66.5271H117.539C117.371 66.4768 117.207 66.2165 117.048 65.7464C116.888 65.2763 116.775 64.7474 116.708 64.1597L116.431 61.9183C116.38 61.7336 116.338 61.6035 116.305 61.5279C116.279 61.444 116.229 61.3474 116.153 61.2383C116.078 61.1207 115.973 61.041 115.839 60.999C115.713 60.957 115.549 60.9361 115.348 60.9361H114.768V65.9731C114.768 65.9982 114.768 66.0402 114.768 66.099C114.768 66.1494 114.768 66.1871 114.768 66.2123C114.768 66.2291 114.768 66.2585 114.768 66.3005C114.768 66.3424 114.764 66.376 114.756 66.4012C114.747 66.418 114.739 66.4432 114.731 66.4768C114.722 66.5103 114.71 66.5355 114.693 66.5523C114.684 66.5607 114.668 66.5775 114.642 66.6027C114.626 66.6195 114.6 66.6321 114.567 66.6405C114.542 66.6489 114.508 66.6573 114.466 66.6657C114.432 66.674 114.391 66.6782 114.34 66.6782H107.716V49.8546ZM114.844 56.5035C114.861 56.5203 114.886 56.5581 114.919 56.6168C114.953 56.6672 114.987 56.7092 115.02 56.7427C115.054 56.7763 115.087 56.7973 115.121 56.8057C115.373 56.8057 115.625 56.7805 115.876 56.7301C116.128 56.6714 116.384 56.579 116.645 56.4531C116.913 56.3272 117.127 56.1341 117.287 55.8739C117.455 55.6136 117.539 55.303 117.539 54.942C117.539 54.0689 116.699 53.6324 115.02 53.6324C114.852 53.6744 114.768 53.7415 114.768 53.8339V54.3124C114.768 54.5558 114.781 54.921 114.806 55.4079C114.831 55.8948 114.844 56.26 114.844 56.5035ZM131.076 49.8043L133.053 56.025C133.691 54.3208 134.287 52.6166 134.841 50.9124C134.858 50.8452 134.908 50.7193 134.992 50.5346C135.076 50.3499 135.126 50.1988 135.143 50.0813C135.21 49.8798 135.663 49.7791 136.503 49.7791C136.562 49.7791 136.642 49.7833 136.742 49.7917C136.851 49.8001 136.94 49.8043 137.007 49.8043C138.375 49.7875 139.853 49.7707 141.439 49.7539C141.641 49.7791 141.783 49.9848 141.867 50.3709L136.15 60.722L136.352 61.5657C136.352 62.0526 136.36 62.7955 136.377 63.7946C136.394 64.7936 136.402 65.4862 136.402 65.8723V66.2501C136.369 66.3676 136.302 66.4642 136.201 66.5397C136.108 66.6153 135.974 66.6657 135.798 66.6908C135.63 66.7076 135.479 66.7202 135.344 66.7286C135.219 66.7286 135.034 66.7244 134.79 66.716C134.555 66.7076 134.396 66.7034 134.312 66.7034H129.502L129.099 66.1745V60.9109L126.19 54.7028L124.842 52.8139C124.154 51.4371 123.81 50.5514 123.81 50.1568C123.81 49.9218 124.011 49.8043 124.414 49.8043H131.076ZM141.666 58.065L141.641 57.7879C141.8 56.4195 141.951 55.4667 142.094 54.9294C142.421 53.6702 143.009 52.6166 143.857 51.7687L144.159 51.4665C144.562 50.9964 145.175 50.5934 145.998 50.2576H146.476C147.299 49.9134 148.651 49.5944 150.531 49.3006C151.001 49.3006 151.492 49.3383 152.004 49.4139C152.525 49.4811 153.1 49.5986 153.73 49.7665C154.359 49.926 154.964 50.1862 155.543 50.5472C156.131 50.8998 156.617 51.3238 157.004 51.8191V52.1717C158.38 53.8926 159.069 55.8235 159.069 57.9642C159.069 60.3736 158.515 62.338 157.407 63.8575L156.903 64.4871C156.517 64.9657 156.034 65.377 155.455 65.7212C154.884 66.0654 154.275 66.3299 153.629 66.5145C152.982 66.6908 152.361 66.8168 151.765 66.8923C151.177 66.9679 150.59 67.0057 150.002 67.0057C149.137 67.0057 148.311 66.9049 147.521 66.7034C146.741 66.4936 146.006 66.1703 145.318 65.7338C144.638 65.2973 144.038 64.76 143.517 64.122C142.997 63.4839 142.573 62.7158 142.245 61.8175C141.926 60.9109 141.733 59.9119 141.666 58.8205V58.065ZM148.592 58.1657C148.592 61.1207 149.154 62.5983 150.279 62.5983C150.59 62.5983 150.858 62.5395 151.085 62.422C151.32 62.3044 151.509 62.1239 151.652 61.8805C151.795 61.637 151.912 61.3894 152.004 61.1375C152.097 60.8857 152.16 60.5709 152.193 60.1931C152.235 59.8153 152.26 59.4837 152.269 59.1983C152.286 58.9129 152.294 58.5687 152.294 58.1657V57.7124C152.294 57.2758 152.269 56.8561 152.218 56.4531C152.168 56.0502 152.08 55.6472 151.954 55.2442C151.836 54.8329 151.652 54.5055 151.4 54.262C151.148 54.0102 150.842 53.8842 150.481 53.8842C149.221 53.8842 148.592 55.1267 148.592 57.6116V58.1657ZM177.555 49.8546C177.655 49.8882 177.731 50.0351 177.781 50.2954C177.84 50.5472 177.874 50.8662 177.882 51.2524C177.89 51.6386 177.89 52.008 177.882 52.3605C177.874 52.7131 177.861 53.0741 177.844 53.4435C177.836 53.8129 177.832 54.0437 177.832 54.1361C177.815 54.4719 177.806 54.942 177.806 55.5465V56.8813C177.806 57.4689 177.815 58.2748 177.832 59.299C177.848 60.3232 177.857 61.0788 177.857 61.5657V66.1494C177.823 66.4348 177.588 66.5775 177.152 66.5775H170.1C169.949 66.5439 169.756 66.1913 169.521 65.5197C169.361 65.0748 169.092 64.3444 168.715 63.3286C168.345 62.3128 168.026 61.423 167.758 60.659C167.489 59.8867 167.246 59.1395 167.027 58.4175V58.342V58.4175C167.002 58.9716 166.977 59.7985 166.952 60.8983C166.927 61.9896 166.901 62.8081 166.876 63.3538V65.9227C166.876 66.1745 166.847 66.3508 166.788 66.4516C166.729 66.5439 166.574 66.6195 166.322 66.6782H161.134L160.58 66.1242C160.622 64.7306 160.655 62.5479 160.681 59.5761C160.706 56.6042 160.739 54.4047 160.781 52.9776V50.2576C160.865 49.9554 160.966 49.8043 161.084 49.8043V49.8546C161.654 49.8546 162.549 49.8378 163.766 49.8043C164.991 49.7707 165.911 49.7539 166.524 49.7539H168.639C168.648 49.7539 168.66 49.7581 168.677 49.7665C168.828 49.8252 168.912 49.8924 168.929 49.968L168.941 50.0561C169.244 50.8704 169.55 51.7141 169.861 52.5872C170.171 53.4603 170.541 54.5181 170.969 55.7605C171.397 56.9946 171.695 57.8467 171.863 58.3168V56.4531C172.031 53.4981 172.115 51.3993 172.115 50.1568C172.115 50.0225 172.207 49.9386 172.392 49.905C172.576 49.8714 172.862 49.8546 173.248 49.8546H177.555ZM180.275 50.9124C180.275 50.4087 180.296 50.1149 180.338 50.0309C180.413 49.9134 180.535 49.8546 180.703 49.8546H181.005C181.139 49.8546 181.232 49.863 181.282 49.8798H181.937C182.785 49.8798 184.065 49.8588 185.778 49.8169C187.499 49.7749 188.787 49.7539 189.643 49.7539H192.993C193.211 49.7791 193.32 49.8882 193.32 50.0813V54.2872C193.312 54.3376 193.295 54.3837 193.27 54.4257C193.253 54.4593 193.237 54.4845 193.22 54.5013C193.211 54.5097 193.174 54.539 193.106 54.5894C193.039 54.6314 192.993 54.665 192.968 54.6902H187.125V56.2516H187.679C188.166 56.2516 188.909 56.2348 189.908 56.2013C190.907 56.1677 191.675 56.1509 192.212 56.1509C192.447 56.1509 192.607 56.1971 192.691 56.2894C192.775 56.3818 192.817 56.5119 192.817 56.6798C192.817 56.7218 192.808 56.7931 192.792 56.8939C192.775 56.9946 192.766 57.0659 192.766 57.1079V57.5864C192.766 57.62 192.771 57.6914 192.779 57.8005C192.787 57.9013 192.792 57.9894 192.792 58.065V58.4175C192.792 58.6022 192.8 58.7869 192.817 58.9716C192.834 59.1563 192.842 59.3158 192.842 59.4501V59.7775C192.8 59.8783 192.766 59.9454 192.741 59.979C192.716 60.0126 192.674 60.0294 192.615 60.0294V60.0042C192.305 60.0042 191.767 60.0252 191.003 60.0672C190.248 60.1091 189.643 60.1301 189.19 60.1301H187.175V61.742C187.242 61.742 187.343 61.7462 187.478 61.7546C187.612 61.763 187.713 61.7672 187.78 61.7672C188.158 61.7672 188.716 61.7546 189.455 61.7294C190.193 61.7042 190.726 61.6916 191.054 61.6916H192.666C193.102 61.6916 193.379 61.742 193.497 61.8427C193.539 61.8931 193.572 61.9435 193.598 61.9938V66.0234C193.598 66.1997 193.564 66.334 193.497 66.4264C193.43 66.5187 193.304 66.5691 193.119 66.5775H180.652L180.275 66.2501V50.9124Z" fill="#FDFEFF"/>
<path d="M74.5432 32.9598C74.5432 33.1109 74.5516 33.346 74.5684 33.665C74.5852 33.9756 74.5978 34.2736 74.6062 34.5591C74.6146 34.8445 74.6188 35.1635 74.6188 35.5161C74.6272 35.8603 74.6146 36.1751 74.581 36.4606C74.5558 36.7376 74.5139 37.002 74.4551 37.2539C74.3963 37.4973 74.304 37.6862 74.1781 37.8205C74.0605 37.9549 73.9136 38.022 73.7373 38.022H67.9951C67.5922 37.7114 67.3907 36.5529 67.3907 34.5465C67.3907 33.8161 67.3949 32.9388 67.4033 31.9146C67.4117 30.8821 67.4159 30.1475 67.4159 29.711V28.8295C67.4159 28.7539 67.4075 28.6112 67.3907 28.4013C67.3823 28.1831 67.3823 28.0152 67.3907 27.8976C67.0549 29.1149 66.6435 30.8569 66.1566 33.1235C65.6697 35.3902 65.3339 36.9055 65.1492 37.6694C65.0653 37.9045 64.6791 38.022 63.9907 38.022H59.533C58.9873 38.022 58.6683 37.8793 58.5759 37.5939L57.367 32.3302C57.2579 31.7929 57.1362 31.2347 57.0019 30.6554C56.8759 30.0761 56.7248 29.4171 56.5485 28.6784C56.3722 27.9396 56.2421 27.3939 56.1582 27.0413C56.0574 29.7277 56.007 31.7761 56.007 33.1865V35.4028C56.007 36.3934 56.0154 37.1405 56.0322 37.6442C55.9819 37.8289 55.8895 37.9213 55.7552 37.9213H54.5715C54.0762 37.9213 53.35 37.9255 52.393 37.9339C51.436 37.9423 50.7098 37.9465 50.2145 37.9465C49.7612 37.9465 49.5345 37.8709 49.5345 37.7198V19.0325C49.5345 18.9569 49.5513 18.894 49.5849 18.8436C49.6268 18.7848 49.6856 18.7429 49.7612 18.7177C49.8451 18.6841 49.9249 18.6589 50.0004 18.6421C50.076 18.6253 50.1725 18.6169 50.29 18.6169C50.4076 18.6085 50.5041 18.6043 50.5797 18.6043C50.6552 18.596 50.7518 18.596 50.8693 18.6043C50.9868 18.6043 51.0624 18.6043 51.096 18.6043H52.5819C54.9745 18.6043 56.6577 18.6379 57.6315 18.7051C58.6137 18.7722 59.3651 18.8058 59.8855 18.8058C60.087 19.9308 60.406 21.6014 60.8426 23.8177L61.7996 28.8295L63.8144 18.6547C63.8144 18.6547 63.848 18.6631 63.9152 18.6799C63.9823 18.6967 64.0327 18.7051 64.0663 18.7051C64.9645 18.7051 66.2909 18.6925 68.0455 18.6673C69.8001 18.6421 71.1265 18.6295 72.0247 18.6295H73.8884C74.1235 18.6547 74.241 18.8898 74.241 19.3347C74.4257 27.4695 74.5265 32.0112 74.5432 32.9598ZM76.6588 21.3999C76.6588 20.8962 76.6798 20.6024 76.7218 20.5184C76.7973 20.4009 76.919 20.3421 77.0869 20.3421H77.3892C77.5235 20.3421 77.6158 20.3505 77.6662 20.3673H78.321C79.1689 20.3673 80.4491 20.3463 82.1617 20.3043C83.8827 20.2624 85.1713 20.2414 86.0276 20.2414H89.3772C89.5955 20.2666 89.7046 20.3757 89.7046 20.5688V24.7747C89.6963 24.8251 89.6795 24.8712 89.6543 24.9132C89.6375 24.9468 89.6207 24.972 89.6039 24.9888C89.5955 24.9972 89.5577 25.0265 89.4906 25.0769C89.4234 25.1189 89.3772 25.1525 89.3521 25.1776H83.5091V26.7391H84.0632C84.5501 26.7391 85.2931 26.7223 86.2921 26.6887C87.2911 26.6552 88.0592 26.6384 88.5965 26.6384C88.8316 26.6384 88.9911 26.6846 89.075 26.7769C89.159 26.8692 89.2009 26.9994 89.2009 27.1673C89.2009 27.2092 89.1926 27.2806 89.1758 27.3813C89.159 27.4821 89.1506 27.5534 89.1506 27.5954V28.0739C89.1506 28.1075 89.1548 28.1789 89.1632 28.288C89.1716 28.3887 89.1758 28.4769 89.1758 28.5524V28.905C89.1758 29.0897 89.1842 29.2744 89.2009 29.4591C89.2177 29.6438 89.2261 29.8033 89.2261 29.9376V30.265C89.1842 30.3658 89.1506 30.4329 89.1254 30.4665C89.1002 30.5001 89.0582 30.5169 88.9995 30.5169V30.4917C88.6889 30.4917 88.1516 30.5127 87.3876 30.5547C86.6321 30.5966 86.0276 30.6176 85.5743 30.6176H83.5595V32.2295C83.6267 32.2295 83.7274 32.2337 83.8617 32.2421C83.996 32.2504 84.0968 32.2546 84.1639 32.2546C84.5417 32.2546 85.1 32.2421 85.8387 32.2169C86.5775 32.1917 87.1106 32.1791 87.438 32.1791H89.0498C89.4864 32.1791 89.7634 32.2295 89.8809 32.3302C89.9229 32.3806 89.9565 32.4309 89.9817 32.4813V36.5109C89.9817 36.6872 89.9481 36.8215 89.8809 36.9139C89.8138 37.0062 89.6879 37.0566 89.5032 37.065H77.0366L76.6588 36.7376V21.3999Z" fill="#FDFEFF"/>
<path d="M90.9549 10.4439L90.9549 18.7812L91.9232 19.7495L91.9232 9.47557L90.9549 10.4439ZM93.1682 8.5952L93.1682 20.6299L109.629 20.6298L109.629 8.59525L93.1683 8.59535L93.1682 8.5952ZM110.874 9.47552L110.874 19.7496L111.842 18.7813L111.842 10.4439L110.874 9.47562L110.874 9.47552ZM99.8079 21.8748L99.8079 22.8431L102.99 22.8432V21.8748L99.8079 21.8748ZM99.8079 24.088L99.8079 26.3893L102.109 24.088L99.8079 24.088ZM99.8079 28.1499L99.8079 30.8158L102.989 27.6343V24.9683L99.8079 28.1499ZM99.8079 32.5765L99.8079 35.2422L102.989 32.0607V29.3949L99.8079 32.5765ZM100.688 36.1226L102.989 36.1226L102.989 33.8213L100.688 36.1226ZM99.8079 37.3676L99.8079 38.3358L102.989 38.3358L102.989 37.3676L99.8079 37.3676ZM98.8362 40.1878L99.5702 41.6558H103.227L103.961 40.1878L103.354 39.5807L99.4432 39.5808L98.8362 40.1878Z" fill="#C0AA3C"/>
<path d="M109.289 37.6694C109.809 35.747 110.384 33.7951 111.014 31.8139C111.643 29.8327 112.424 27.4653 113.356 24.7117C114.296 21.9498 114.938 20.0399 115.283 18.9821C115.383 18.8142 115.451 18.7135 115.484 18.6799H117.6C118.095 18.6799 118.825 18.6715 119.791 18.6547C120.756 18.6379 121.487 18.6295 121.982 18.6295H124.097C124.223 18.6295 124.328 18.6337 124.412 18.6421C124.496 18.6421 124.597 18.6505 124.714 18.6673C124.832 18.6841 124.924 18.7093 124.991 18.7429C125.067 18.7764 125.13 18.8268 125.18 18.894C125.231 18.9611 125.256 19.0409 125.256 19.1332L131.061 37.5309C131.061 37.6988 130.998 37.8121 130.872 37.8709C130.755 37.9381 130.528 37.9717 130.192 37.9717H129.034C128.698 37.9717 128.198 37.9759 127.535 37.9842C126.872 37.9926 126.372 37.9968 126.037 37.9968C125.936 37.9968 125.73 38.001 125.42 38.0094C125.117 38.0262 124.861 38.0304 124.651 38.022C124.442 38.022 124.207 38.0094 123.946 37.9842C123.694 37.9675 123.489 37.9213 123.329 37.8457C123.178 37.7786 123.082 37.6862 123.04 37.5687V36.7376C122.956 36.3178 122.809 35.9317 122.599 35.5791C122.389 35.2265 122.167 35.0502 121.931 35.0502H117.6L116.945 37.7198C116.852 37.9213 116.382 38.022 115.534 38.022H114.527C114.166 38.022 113.629 38.0346 112.915 38.0598C112.202 38.085 111.664 38.0976 111.303 38.0976H110.951C110.816 38.0976 110.602 38.1018 110.309 38.1102C110.023 38.1186 109.801 38.1228 109.641 38.1228C109.574 38.0556 109.456 37.9045 109.289 37.6694ZM118.028 30.0258L118.38 30.6176H119.211C119.883 30.6176 120.496 30.5798 121.05 30.5043C121.612 30.4203 121.894 30.2902 121.894 30.1139L120.269 22.8606C120.118 22.8606 119.912 23.1461 119.652 23.7169C119.4 24.2878 119.195 24.9342 119.035 25.6562L118.028 30.0258ZM131.804 20.8458C131.804 19.4774 131.947 18.7135 132.232 18.554C132.316 18.5708 132.434 18.5792 132.585 18.5792H132.988C133.248 18.5792 133.676 18.5708 134.272 18.554C134.868 18.5372 135.322 18.5288 135.632 18.5288C136.824 18.5288 137.785 18.5792 138.516 18.6799C139.255 18.7722 139.67 18.9485 139.762 19.2088L139.611 32.2043H139.888C140.56 32.1707 141.03 32.1581 141.299 32.1665C141.567 32.1665 142.059 32.1833 142.772 32.2169C143.494 32.2421 144.187 32.2546 144.85 32.2546C145.396 32.2546 145.798 32.2882 146.059 32.3554C146.327 32.4142 146.462 32.5401 146.462 32.7332V37.5687C146.353 37.8709 144.48 38.022 140.845 38.022H132.131C131.93 37.7282 131.829 37.2581 131.829 36.6117V33.0354C131.829 31.986 131.838 30.4329 131.854 28.3761C131.871 26.3194 131.88 24.7663 131.88 23.7169C131.88 23.5238 131.867 23.0957 131.842 22.4325C131.817 21.7693 131.804 21.2404 131.804 20.8458Z" fill="#FDFEFF"/>
</svg>
